<?xml version="1.0" encoding="UTF-8" standalone="no"?>
<svg version="1.2" x="0px" y="0px" width="64" height="64" viewBox="0 0 64 64" xml:space="preserve" xmlns="http://www.w3.org/2000/svg" xmlns:svg="http://www.w3.org/2000/svg">
	<path fill="#bb2018" d="M 16,0 H 48 L 64,16 V 48 L 48,64 H 16 L 0,48 V 16 Z" />
	<path fill="#ffffff" d="m 54.924444,29.395556 -0.983111,9.297777 H 46.508444 V 64 H 35.344 V 38.695111 H 29.777778 V 29.397333 H 35.344 v -5.598222 c 0,-7.562667 3.143111,-12.081778 12.081778,-12.081778 h 7.432889 v 9.297778 h -4.648889 c -3.470222,0 -3.699556,1.308445 -3.699556,3.733333 v 4.648889 h 8.414222 z" />
	<path fill="#ffffff" d="m 22.291666,0 c 0.09184,1.2486221 0.152778,2.5054164 0.152778,3.7777778 C 22.444444,21.337963 13.542708,36.786832 0,45.875001 v 2.132916 l 3.6041668,3.604166 C 18.199291,41.497738 27.777778,22.854446 27.777778,3.7777778 27.777778,2.5065291 27.71907,1.25029 27.635417,0 Z" />
</svg>
